<?xml version="1.0" standalone="no"?>
<!DOCTYPE svg PUBLIC "-//W3C//DTD SVG 20010904//EN"
 "http://www.w3.org/TR/2001/REC-SVG-20010904/DTD/svg10.dtd">
<svg version="1.0" xmlns="http://www.w3.org/2000/svg"
 width="512.000000pt" height="512.000000pt" viewBox="0 0 512.000000 512.000000"
 preserveAspectRatio="xMidYMid meet">
<metadata>
Created by potrace 1.14, written by Peter Selinger 2001-2017
</metadata>
<g transform="translate(0.000000,512.000000) scale(0.100000,-0.100000)"
fill="#000000" stroke="none">
<path d="M2250 5104 c-58 -8 -157 -26 -220 -40 -131 -29 -403 -117 -449 -145
-100 -61 -94 -219 9 -271 52 -27 82 -23 235 31 276 96 476 132 739 132 263 0
469 -34 716 -117 723 -243 1278 -845 1465 -1589 53 -211 68 -354 62 -599 -6
-266 -36 -436 -117 -672 -39 -112 -163 -364 -229 -466 -47 -72 -52 -77 -75
-69 -45 18 -141 23 -206 12 -193 -34 -340 -184 -371 -379 -37 -230 116 -459
342 -511 109 -25 245 -5 341 52 54 31 139 120 166 173 59 115 67 259 23 384
l-24 65 67 104 c183 287 307 607 366 942 31 174 39 550 16 729 -78 592 -319
1084 -736 1500 -413 414 -917 662 -1493 735 -149 19 -483 18 -627 -1z m2070
-4116 c102 -53 106 -187 8 -249 -42 -26 -112 -21 -156 9 -38 27 -66 95 -57
139 11 60 82 121 140 123 12 0 41 -10 65 -22z"/>
<path d="M728 4691 c-154 -50 -272 -175 -308 -330 -17 -72 -8 -200 20 -276
l22 -60 -66 -104 c-183 -289 -307 -607 -366 -942 -32 -177 -39 -541 -16 -730
74 -581 320 -1083 736 -1499 292 -293 622 -498 1005 -625 257 -85 440 -116
740 -122 253 -6 382 6 595 53 131 29 403 117 449 145 100 61 94 219 -9 271
-52 27 -82 23 -235 -31 -278 -97 -476 -132 -744 -132 -193 1 -368 22 -538 65
-740 187 -1345 746 -1587 1466 -92 274 -120 465 -113 770 6 270 35 438 117
676 39 112 163 364 229 466 45 70 52 77 73 69 46 -17 145 -22 209 -11 194 35
339 183 370 378 37 230 -116 459 -342 511 -68 16 -178 12 -241 -8z m220 -319
c38 -27 66 -95 57 -139 -8 -46 -59 -100 -106 -114 -32 -10 -46 -9 -84 5 -114
44 -127 191 -23 257 42 26 112 21 156 -9z"/>
<path d="M2305 4196 c-614 -102 -1118 -525 -1311 -1101 -68 -205 -78 -273 -78
-535 0 -206 2 -247 22 -333 148 -662 627 -1142 1288 -1289 87 -19 128 -22 334
-22 206 0 247 3 335 22 658 147 1140 628 1287 1288 20 87 22 128 22 334 0 206
-2 247 -22 333 -147 660 -628 1142 -1284 1288 -120 27 -469 36 -593 15z m333
-325 c107 -79 222 -312 287 -586 29 -121 62 -344 71 -477 l7 -98 -443 0 -443
0 7 98 c9 133 42 356 71 477 83 352 240 615 365 615 25 0 50 -9 78 -29z m-643
-186 c-89 -223 -153 -517 -177 -819 l-12 -156 -292 0 -291 0 9 58 c22 139 63
262 134 402 125 245 333 455 579 582 49 25 91 46 92 45 1 -2 -18 -52 -42 -112z
m1365 -49 c102 -77 228 -205 299 -307 102 -144 191 -354 221 -519 6 -36 13
-73 15 -82 3 -17 -16 -18 -289 -18 l-292 0 -12 156 c-28 346 -98 644 -221 928
-8 19 201 -99 279 -158z m-1542 -1382 c28 -346 98 -644 221 -928 2 -4 -41 15
-95 43 -374 192 -648 571 -712 984 l-9 57 291 0 292 0 12 -156z m1178 59 c-9
-134 -42 -357 -71 -478 -83 -352 -240 -615 -365 -615 -125 0 -282 263 -365
615 -29 121 -62 344 -71 478 l-7 97 443 0 443 0 -7 -97z m899 80 c-2 -10 -9
-47 -15 -83 -30 -165 -119 -375 -221 -519 -71 -102 -197 -230 -299 -307 -78
-59 -287 -177 -279 -158 123 284 193 582 221 928 l12 156 292 0 c273 0 292 -1
289 -17z"/>
</g>
</svg>
